<svg width="454" height="251" viewBox="0 0 454 251" fill="none" xmlns="http://www.w3.org/2000/svg">
<path d="M114.45 132.718C114.45 130.245 112.446 128.241 109.973 128.241C107.5 128.241 105.496 130.245 105.496 132.718V241.037C105.496 243.509 107.5 245.514 109.973 245.514C112.446 245.514 114.45 243.509 114.45 241.037V132.718Z" fill="#22577A"/>
<path d="M214.877 183.446V67.4658C214.877 65.8672 214.023 64.3888 212.638 63.5895L112.196 5.59947C110.812 4.80018 109.104 4.80018 107.719 5.59947L7.27751 63.5895C5.89295 64.3888 5.03906 65.8672 5.03906 67.4658V183.446C5.03906 185.044 5.89295 186.523 7.27751 187.322L107.719 245.312C109.104 246.111 110.812 246.111 112.196 245.312L212.638 187.322C214.023 186.523 214.877 185.044 214.877 183.446Z" stroke="#22577A" stroke-width="8.73541" stroke-miterlimit="10"/>
<path d="M5 64.9008L107.678 124.904C109.063 125.714 110.775 125.721 112.166 124.922L214.835 65.9512" stroke="url(#paint0_linear_29059_40410)" stroke-width="8.73541" stroke-miterlimit="10"/>
<path d="M175.817 160.885V90.4309C175.817 88.6454 174.864 86.994 173.319 86.1012L112.362 50.8754C110.817 49.9826 108.912 49.9826 107.367 50.8754L46.41 86.1012C44.865 86.994 43.9121 88.6454 43.9121 90.4309V160.885C43.9121 162.67 44.865 164.322 46.41 165.215L107.367 200.44C108.912 201.333 110.817 201.333 112.362 200.44L173.319 165.215C174.864 164.322 175.817 162.67 175.817 160.885Z" fill="#7FF99C"/>
<path d="M110.082 239.07C107.569 239.131 105.496 237.108 105.496 234.595V128.243H114.45V234.595C114.45 237.025 112.511 239.011 110.082 239.07Z" fill="#22577A"/>
<path d="M5 64.9008L107.678 124.904C109.063 125.714 110.775 125.721 112.166 124.922L214.835 65.9512" stroke="#22577A" stroke-width="8.73541" stroke-miterlimit="10"/>
<path d="M298.893 88.5442L285.528 96.4639C283.03 92.1269 280.649 89.2985 278.386 87.9785C276.029 86.47 272.989 85.7158 269.265 85.7158C264.692 85.7158 260.897 87.0122 257.88 89.6049C254.863 92.1505 253.355 95.3561 253.355 99.2217C253.355 104.549 257.314 108.838 265.234 112.091L276.124 116.546C284.986 120.129 291.468 124.513 295.569 129.698C299.671 134.837 301.721 141.154 301.721 148.649C301.721 158.69 298.374 166.987 291.68 173.539C284.939 180.139 276.572 183.439 266.578 183.439C257.102 183.439 249.277 180.634 243.101 175.024C237.02 169.415 233.225 161.518 231.717 151.336L248.405 147.659C249.159 154.07 250.479 158.501 252.365 160.953C255.759 165.667 260.709 168.024 267.214 168.024C272.352 168.024 276.619 166.303 280.013 162.862C283.407 159.421 285.104 155.06 285.104 149.78C285.104 147.659 284.798 145.726 284.185 143.982C283.619 142.191 282.7 140.564 281.427 139.103C280.201 137.594 278.599 136.204 276.619 134.931C274.639 133.611 272.282 132.362 269.548 131.183L259.012 126.799C244.068 120.482 236.596 111.243 236.596 99.0802C236.596 90.8777 239.731 84.0187 246.001 78.5032C252.27 72.9406 260.072 70.1593 269.406 70.1593C281.993 70.1593 291.822 76.2876 298.893 88.5442ZM310.006 181.459V72.2806H332.916C343.9 72.2806 352.574 73.3648 358.938 75.5333C365.774 77.6547 371.973 81.261 377.535 86.3522C388.802 96.6289 394.435 110.135 394.435 126.87C394.435 143.652 388.566 157.229 376.828 167.6C370.936 172.785 364.76 176.391 358.302 178.419C352.268 180.446 343.712 181.459 332.634 181.459H310.006ZM326.482 165.973H333.906C341.307 165.973 347.459 165.195 352.362 163.64C357.265 161.99 361.696 159.374 365.656 155.791C373.764 148.39 377.818 138.749 377.818 126.87C377.818 114.896 373.811 105.185 365.797 97.7367C358.585 91.0898 347.954 87.7664 333.906 87.7664H326.482V165.973Z" fill="#22567B"/>
<rect x="409.754" y="90.3885" width="16.7477" height="76.0437" fill="#22567B"/>
<path d="M454 120.037L454 128.41L454 136.784L395.949 136.784L396.206 134.668C396.712 130.512 396.712 126.309 396.206 122.153L395.949 120.037L454 120.037Z" fill="#22567B"/>
<defs>
<linearGradient id="paint0_linear_29059_40410" x1="2.79649" y1="95.5074" x2="217.011" y2="95.5074" gradientUnits="userSpaceOnUse">
<stop offset="0.54" stop-color="#378386"/>
<stop offset="0.99" stop-color="#22577A"/>
</linearGradient>
</defs>
</svg>
